HIERARCHY
ROOT Hips
{
  OFFSET 5.84602e-005 68.8428 3.50346
  CHANNELS 6 Xposition Yposition Zposition Zrotation Xrotation Yrotation
  JOINT Spine
  {
    OFFSET 0 8.597 -4.6522
    CHANNELS 3 Zrotation Xrotation Yrotation
    JOINT Spine1
    {
      OFFSET 0 7.8454 0.4098
      CHANNELS 3 Zrotation Xrotation Yrotation
      JOINT Spine2
      {
        OFFSET 0 9.7078 -2.1609
        CHANNELS 3 Zrotation Xrotation Yrotation
        JOINT Neck
        {
          OFFSET 0 21.8761 -0.4549
          CHANNELS 3 Zrotation Xrotation Yrotation
          JOINT Head
          {
            OFFSET 0 12.3537 3.3602
            CHANNELS 3 Zrotation Xrotation Yrotation
            End Site
            {
              OFFSET 0.0001 18.9506 0.5657
            }
          }
        }
        JOINT LeftShoulder
        {
          OFFSET 2.2086 21.1115 7.2329
          CHANNELS 3 Zrotation Xrotation Yrotation
          JOINT LeftArm
          {
            OFFSET 13.1193 3.0282 -4.8998
            CHANNELS 3 Zrotation Xrotation Yrotation
            JOINT LeftForeArm
            {
              OFFSET 27.4081 -0.0973053 -0.2375
              CHANNELS 3 Zrotation Xrotation Yrotation
              JOINT LeftHand
              {
                OFFSET 22.8641 0.0662994 -0.1369
                CHANNELS 3 Zrotation Xrotation Yrotation
                JOINT LeftHandIndex1
                {
                  OFFSET 8.8614 0.775009 2.4612
                  CHANNELS 3 Zrotation Xrotation Yrotation
                  JOINT LeftHandIndex2
                  {
                    OFFSET 3.3146 -0.808304 0.5841
                    CHANNELS 3 Zrotation Xrotation Yrotation
                    JOINT LeftHandIndex3
                    {
                      OFFSET 2.2628 -0.552002 0.3989
                      CHANNELS 3 Zrotation Xrotation Yrotation
                      End Site
                      {
                        OFFSET 1.6102 -0.4807 0.2612
                      }
                    }
                  }
                }
                JOINT LeftHandMiddle1
                {
                  OFFSET 8.9937 0.895004 0.2143
                  CHANNELS 3 Zrotation Xrotation Yrotation
                  JOINT LeftHandMiddle2
                  {
                    OFFSET 4.0984 0.0113983 -0.0242
                    CHANNELS 3 Zrotation Xrotation Yrotation
                    JOINT LeftHandMiddle3
                    {
                      OFFSET 2.2716 0.00689697 -0.0138001
                      CHANNELS 3 Zrotation Xrotation Yrotation
                      End Site
                      {
                        OFFSET 2.0404 -0.1441 0.0027
                      }
                    }
                  }
                }
                JOINT LeftHandRing1
                {
                  OFFSET 8.5234 0.597198 -2.0164
                  CHANNELS 3 Zrotation Xrotation Yrotation
                  JOINT LeftHandRing2
                  {
                    OFFSET 3.7188 -0.188293 -0.2328
                    CHANNELS 3 Zrotation Xrotation Yrotation
                    JOINT LeftHandRing3
                    {
                      OFFSET 2.1191 -0.106598 -0.1332
                      CHANNELS 3 Zrotation Xrotation Yrotation
                      End Site
                      {
                        OFFSET 1.8737 -0.2304 -0.0886
                      }
                    }
                  }
                }
                JOINT LeftHandPinky1
                {
                  OFFSET 7.9094 -0.601089 -3.4825
                  CHANNELS 3 Zrotation Xrotation Yrotation
                  JOINT LeftHandPinky2
                  {
                    OFFSET 2.2874 -0.477005 -0.6314
                    CHANNELS 3 Zrotation Xrotation Yrotation
                    JOINT LeftHandPinky3
                    {
                      OFFSET 1.6774 -0.349396 -0.4633
                      CHANNELS 3 Zrotation Xrotation Yrotation
                      End Site
                      {
                        OFFSET 1.4888 -0.4091 -0.3416
                      }
                    }
                  }
                }
                JOINT LeftHandThumb1
                {
                  OFFSET 1.833 -1.3875 1.3896
                  CHANNELS 3 Zrotation Xrotation Yrotation
                  JOINT LeftHandThumb2
                  {
                    OFFSET 3.4129 -1.121 2.5732
                    CHANNELS 3 Zrotation Xrotation Yrotation
                    JOINT LeftHandThumb3
                    {
                      OFFSET 2.2474 -0.804199 1.6192
                      CHANNELS 3 Zrotation Xrotation Yrotation
                      End Site
                      {
                        OFFSET 1.6527 -0.5689 1.1317
                      }
                    }
                  }
                }
              }
            }
          }
        }
        JOINT RightShoulder
        {
          OFFSET -2.2086 21.1115 7.2329
          CHANNELS 3 Zrotation Xrotation Yrotation
          JOINT RightArm
          {
            OFFSET -13.1216 3.0287 -4.9007
            CHANNELS 3 Zrotation Xrotation Yrotation
            JOINT RightForeArm
            {
              OFFSET -27.4081 -0.0973053 -0.2375
              CHANNELS 3 Zrotation Xrotation Yrotation
              JOINT RightHand
              {
                OFFSET -22.8641 0.0664063 -0.1369
                CHANNELS 3 Zrotation Xrotation Yrotation
                JOINT RightHandIndex1
                {
                  OFFSET -8.8614 0.774994 2.4612
                  CHANNELS 3 Zrotation Xrotation Yrotation
                  JOINT RightHandIndex2
                  {
                    OFFSET -3.3146 -0.808304 0.5841
                    CHANNELS 3 Zrotation Xrotation Yrotation
                    JOINT RightHandIndex3
                    {
                      OFFSET -2.2628 -0.552002 0.3989
                      CHANNELS 3 Zrotation Xrotation Yrotation
                      End Site
                      {
                        OFFSET -1.6102 -0.4807 0.2612
                      }
                    }
                  }
                }
                JOINT RightHandMiddle1
                {
                  OFFSET -8.9937 0.894989 0.2143
                  CHANNELS 3 Zrotation Xrotation Yrotation
                  JOINT RightHandMiddle2
                  {
                    OFFSET -4.0984 0.0113983 -0.0242
                    CHANNELS 3 Zrotation Xrotation Yrotation
                    JOINT RightHandMiddle3
                    {
                      OFFSET -2.2716 0.00691223 -0.0138001
                      CHANNELS 3 Zrotation Xrotation Yrotation
                      End Site
                      {
                        OFFSET -2.0404 -0.1441 0.0027
                      }
                    }
                  }
                }
                JOINT RightHandRing1
                {
                  OFFSET -8.5234 0.597198 -2.0164
                  CHANNELS 3 Zrotation Xrotation Yrotation
                  JOINT RightHandRing2
                  {
                    OFFSET -3.7188 -0.188309 -0.2328
                    CHANNELS 3 Zrotation Xrotation Yrotation
                    JOINT RightHandRing3
                    {
                      OFFSET -2.1191 -0.106598 -0.1332
                      CHANNELS 3 Zrotation Xrotation Yrotation
                      End Site
                      {
                        OFFSET -1.8737 -0.2304 -0.0886
                      }
                    }
                  }
                }
                JOINT RightHandPinky1
                {
                  OFFSET -7.9094 -0.601105 -3.4825
                  CHANNELS 3 Zrotation Xrotation Yrotation
                  JOINT RightHandPinky2
                  {
                    OFFSET -2.2874 -0.477005 -0.6314
                    CHANNELS 3 Zrotation Xrotation Yrotation
                    JOINT RightHandPinky3
                    {
                      OFFSET -1.6774 -0.349396 -0.4633
                      CHANNELS 3 Zrotation Xrotation Yrotation
                      End Site
                      {
                        OFFSET -1.4888 -0.4091 -0.3416
                      }
                    }
                  }
                }
                JOINT RightHandThumb1
                {
                  OFFSET -1.833 -1.38751 1.3896
                  CHANNELS 3 Zrotation Xrotation Yrotation
                  JOINT RightHandThumb2
                  {
                    OFFSET -3.41299 -1.12099 2.5732
                    CHANNELS 3 Zrotation Xrotation Yrotation
                    JOINT RightHandThumb3
                    {
                      OFFSET -2.24741 -0.804108 1.6192
                      CHANNELS 3 Zrotation Xrotation Yrotation
                      End Site
                      {
                        OFFSET -1.6527 -0.5689 1.1317
                      }
                    }
                  }
                }
              }
            }
          }
        }
      }
    }
  }
  JOINT RightUpLeg
  {
    OFFSET -9.1966 3.8861 -0.7581
    CHANNELS 3 Zrotation Xrotation Yrotation
    JOINT RightLeg
    {
      OFFSET -0.7359 -41.0265 0
      CHANNELS 3 Zrotation Xrotation Yrotation
      JOINT RightFoot
      {
        OFFSET 0 -40.2855 0
        CHANNELS 3 Zrotation Xrotation Yrotation
        JOINT RightToeBase
        {
          OFFSET 0 -5.6122 11.7359
          CHANNELS 3 Zrotation Xrotation Yrotation
          End Site
          {
            OFFSET 0 0 7.8731
          }
        }
      }
    }
  }
  JOINT LeftUpLeg
  {
    OFFSET 9.1965 3.8864 -0.7581
    CHANNELS 3 Zrotation Xrotation Yrotation
    JOINT LeftLeg
    {
      OFFSET 0.7359 -41.0268 0
      CHANNELS 3 Zrotation Xrotation Yrotation
      JOINT LeftFoot
      {
        OFFSET 0 -40.2855 0
        CHANNELS 3 Zrotation Xrotation Yrotation
        JOINT LeftToeBase
        {
          OFFSET 0 -5.6122 11.7359
          CHANNELS 3 Zrotation Xrotation Yrotation
          End Site
          {
            OFFSET 0 0 7.8731
          }
        }
      }
    }
  }
}
MOTION
Frames:	6
Frame Time:	0.0333333
-0.0910744 -7.81174 6.29351 -180 -89.9981 -180 1.99979 -0.0143811 0.19951 3.99963 -0.0217713 0.399404 3.99963 -0.0217863 0.399404 -7.89639e-005 27.9976 2.30243e-005 -1.04758e-006 15.997 -2.09061e-007 -4.81373e-005 -9.49237e-006 -2.51212e-006 -28.681 19.4634 13.8015 11.6563 17.0551 -21.3742 -23.0025 -2.74414e-006 -1.62446e-006 -6.77762e-007 3.13798e-007 -1.48101e-006 1.48101e-006 4.05581e-007 -6.77763e-007 1.48101e-006 4.05581e-007 -6.77762e-007 -6.77762e-007 3.13798e-007 -1.48101e-006 -0.014602 -8.29249e-005 3.45718e-007 3.73105e-006 8.4012e-007 -6.58922e-008 -6.77762e-007 3.13798e-007 -1.48101e-006 -0.0187426 -0.00117163 5.90585e-005 3.73072e-006 8.40034e-007 -6.58926e-008 -6.77762e-007 3.13798e-007 -1.48101e-006 -0.0121689 -0.00321604 0.000673775 1.48096e-006 4.05636e-007 -6.77759e-007 -6.77762e-007 3.13798e-007 -1.48101e-006 1.48101e-006 4.05581e-007 -6.77763e-007 1.48101e-006 4.05581e-007 -6.77762e-007 -4.96146e-005 -10.0022 -3.78387e-006 35.2101 -40.0617 60.9554 8.2649 -0.0095761 127.284 -10.0001 -0.000882752 14.9991 3.17224e-006 1.81116e-006 -3.4498e-007 4.52471e-007 -6.39939e-007 1.482e-006 6.36111e-015 -3.18055e-015 3.18055e-015 3.17224e-006 1.81116e-006 -3.4498e-007 0.014984 -8.98725e-005 -1.57841e-006 6.36111e-015 3.18055e-015 -6.36111e-015 3.17224e-006 1.81116e-006 -3.4498e-007 0.0189687 -0.00119135 -5.8917e-005 4.77083e-015 3.18055e-015 -1.27222e-014 3.17224e-006 1.81116e-006 -3.4498e-007 0.0123101 -0.00326127 -0.000680557 4.77083e-015 0 9.54166e-015 3.17224e-006 1.81116e-006 -3.4498e-007 4.52471e-007 -6.39939e-007 1.482e-006 6.36111e-015 -3.18055e-015 3.18055e-015 -21.8403 -38.6207 -29.3258 179.999 85.1287 177.278 -2.86587 21.9076 -1.26041 -7.95139e-015 -3.18055e-015 -0 11.1255 1.74224 0.110129 -4.04973e-006 2.11548 11.3135 11.8283 45.0197 -7.2507 5.75265e-007 3.04203e-006 -1.82167e-006 
-0.0908942 -7.81122 6.29351 -180 -89.9981 -180 1.99979 -0.0143811 0.19951 3.99963 -0.0217713 0.399404 3.99963 -0.0217863 0.399404 -7.89639e-005 27.9976 2.30243e-005 -1.04758e-006 15.997 -2.09061e-007 -4.81373e-005 -9.49237e-006 -2.51212e-006 -28.6811 19.4634 13.8015 11.6247 17.0517 -21.7171 -23.0025 -1.1527e-005 -1.00336e-006 -1.4805e-006 -4.10341e-007 6.76958e-007 -2.15746e-006 -9.8588e-008 -8.0354e-007 -4.31491e-006 -1.97176e-007 -1.60708e-006 -1.4805e-006 -4.10341e-007 6.76958e-007 -0.0145886 -8.46968e-005 -1.97634e-006 -4.31473e-006 -1.9697e-007 -1.6071e-006 -1.4805e-006 -4.10341e-007 6.76958e-007 -0.0186854 -0.00116874 5.81126e-005 -4.31469e-006 -1.96897e-007 -1.60707e-006 -1.4805e-006 -4.10341e-007 6.76958e-007 -0.0122903 -0.0032526 0.000677826 -2.0685e-006 2.53078e-007 -1.01773e-006 -1.4805e-006 -4.10341e-007 6.76958e-007 -2.15746e-006 -9.8588e-008 -8.0354e-007 -4.31491e-006 -1.97176e-007 -1.60708e-006 -4.96146e-005 -10.0022 -3.78387e-006 35.2101 -40.0617 60.9554 8.59068 0.238552 127.284 -10.0001 -0.000881476 14.9991 -2.95934e-006 -6.46794e-007 9.15216e-007 2.95934e-006 6.46794e-007 -9.15216e-007 -2.95934e-006 -6.46794e-007 9.15216e-007 -2.95934e-006 -6.46794e-007 9.15216e-007 0.0149818 -8.57744e-005 2.60459e-006 -2.95951e-006 -6.46673e-007 9.15303e-007 -2.95934e-006 -6.46794e-007 9.15216e-007 0.0190071 -0.00118924 -6.47357e-005 -2.95955e-006 -6.4663e-007 9.15354e-007 -2.95934e-006 -6.46794e-007 9.15216e-007 0.0122225 -0.00323605 -0.000673798 -2.95945e-006 -6.46677e-007 9.15376e-007 -2.95934e-006 -6.46794e-007 9.15216e-007 2.95934e-006 6.46794e-007 -9.15216e-007 -2.95934e-006 -6.46794e-007 9.15216e-007 -21.5126 -38.6852 -28.772 179.999 85.1312 177.275 -2.86854 21.9082 -1.26151 -7.15625e-015 -3.18055e-015 7.95139e-016 11.1381 1.7144 0.109639 2.39441e-006 2.17572 11.045 11.8307 45.0046 -7.2499 2.14311e-006 2.8789e-006 -6.13332e-007 
-0.0907454 -7.8108 6.29351 -180 -89.9981 -180 1.99979 -0.0143811 0.19951 3.99963 -0.0217713 0.399404 3.99963 -0.0217863 0.399404 -7.89639e-005 27.9976 2.30243e-005 -1.04758e-006 15.997 -2.09061e-007 -4.81373e-005 -9.49237e-006 -2.51212e-006 -28.681 19.4634 13.8015 11.599 17.0493 -21.9958 -23.0025 -5.45351e-006 -1.04217e-006 -3.53113e-031 6.36111e-015 3.18055e-015 3.54884e-006 1.59248e-007 3.60351e-007 3.18055e-015 -3.18055e-015 -0 -3.53113e-031 6.36111e-015 3.18055e-015 -0.0146018 -8.35772e-005 3.3298e-007 -3.18055e-015 1.27222e-014 3.18055e-015 -3.53113e-031 6.36111e-015 3.18055e-015 -0.0187714 -0.00117267 5.96405e-005 5.29669e-031 9.54166e-015 -3.18055e-015 -3.53113e-031 6.36111e-015 3.18055e-015 -0.0123416 -0.0032708 0.00068003 6.36111e-015 0 3.18055e-015 -3.53113e-031 6.36111e-015 3.18055e-015 3.54884e-006 1.59248e-007 3.60351e-007 3.18055e-015 -3.18055e-015 -0 -4.96146e-005 -10.0022 -3.78387e-006 35.2101 -40.0617 60.9554 8.85554 0.440227 127.282 -10.0001 -0.000873243 14.9991 0 0 -1.27222e-014 -3.4173e-006 -1.54869e-009 -5.54204e-007 -4.77083e-015 0 -0 0 0 -1.27222e-014 0.0150118 -9.28573e-005 1.7774e-006 0 6.36111e-015 -0 0 0 -1.27222e-014 0.0189575 -0.00118543 -5.39011e-005 1.04095e-006 -7.35807e-007 -1.85406e-007 0 0 -1.27222e-014 0.0122632 -0.00324926 -0.000671716 1.04001e-006 -7.36078e-007 -1.85554e-007 0 0 -1.27222e-014 -3.4173e-006 -1.54869e-009 -5.54204e-007 -4.77083e-015 0 -0 -21.2453 -38.7362 -28.321 179.999 85.1332 177.273 -2.8707 21.9088 -1.2624 -1.09449e-007 -1.49655e-007 -8.29789e-007 11.1483 1.73811 0.109658 1.58697e-006 2.13109 10.8261 11.851 45.0378 -7.26241 -4.76358e-007 7.97627e-006 -1.95251e-006 
-0.0905924 -7.81038 6.29351 -180 -89.9981 -180 1.99979 -0.0143811 0.199511 3.99963 -0.0217713 0.399404 3.99963 -0.0217863 0.399405 -5.597e-005 27.9976 1.71607e-005 -7.64508e-007 15.997 -8.51613e-007 -4.81373e-005 -9.49237e-006 -2.51212e-006 -28.681 19.4634 13.8015 11.5732 17.047 -22.2745 -23.0025 1.5886e-005 1.21602e-005 -1.76556e-031 3.18055e-015 3.18055e-015 1.47964e-006 4.1807e-007 -6.75632e-007 3.18055e-015 0 3.18055e-015 -1.76556e-031 3.18055e-015 3.18055e-015 -0.0146226 -9.22126e-005 1.14418e-006 -3.18055e-015 -3.18055e-015 6.36111e-015 -1.76556e-031 3.18055e-015 3.18055e-015 -0.0186736 -0.00117461 5.80327e-005 1.27222e-014 1.59028e-014 3.18055e-015 -1.76556e-031 3.18055e-015 3.18055e-015 -0.0123542 -0.00327391 0.000678648 -1.31044e-006 3.1427e-007 1.7294e-007 -1.76556e-031 3.18055e-015 3.18055e-015 1.47964e-006 4.1807e-007 -6.75632e-007 3.18055e-015 0 3.18055e-015 -4.9443e-005 -10.0022 -4.06626e-006 35.2101 -40.0617 60.9554 9.12047 0.641949 127.28 -10.0001 -0.000885117 14.9991 -1.59028e-015 -1.27222e-014 3.18055e-015 -9.54166e-015 -6.36111e-015 -0 -3.18055e-015 -6.36111e-015 3.18055e-015 -1.59028e-015 -1.27222e-014 3.18055e-015 0.0150335 -9.22463e-005 1.3282e-006 6.36111e-015 0 -9.54166e-015 -1.59028e-015 -1.27222e-014 3.18055e-015 0.0189454 -0.00118279 -5.78545e-005 4.77083e-015 1.27222e-014 9.54166e-015 -1.59028e-015 -1.27222e-014 3.18055e-015 0.0121936 -0.00322875 -0.000674999 -1.59028e-015 -3.18055e-015 -0 -1.59028e-015 -1.27222e-014 3.18055e-015 -9.54166e-015 -6.36111e-015 -0 -3.18055e-015 -6.36111e-015 3.18055e-015 -20.9774 -38.7853 -27.8693 179.999 85.1353 177.271 -2.87283 21.9094 -1.26329 4.77083e-015 0 1.59028e-015 11.1586 1.73491 0.109434 1.6129e-006 2.14068 10.6076 11.8606 45.0446 -7.26726 -3.30587e-007 3.31849e-006 2.84148e-007 
-0.0904403 -7.80996 6.29351 -180 -89.9981 -180 1.99979 -0.0143811 0.19951 3.99963 -0.0217713 0.399404 3.99963 -0.0217863 0.399404 -7.89639e-005 27.9976 2.30243e-005 -1.04758e-006 15.997 -2.09061e-007 -4.81373e-005 -9.49237e-006 -2.51212e-006 -28.681 19.4634 13.8015 11.5474 17.0448 -22.5534 -23.0025 4.82632e-006 -7.68092e-007 2.32306e-006 -2.53646e-006 -1.28847e-006 1.4792e-006 4.21933e-007 -6.74962e-007 3.80226e-006 -2.11452e-006 -1.96343e-006 2.32306e-006 -2.53646e-006 -1.28847e-006 -0.0145556 -8.40958e-005 -1.264e-006 3.80235e-006 -2.11427e-006 -1.9637e-006 2.32306e-006 -2.53646e-006 -1.28847e-006 -0.0188261 -0.00117491 5.61905e-005 3.80236e-006 -2.1142e-006 -1.96382e-006 2.32306e-006 -2.53646e-006 -1.28847e-006 -0.0123946 -0.00327929 0.000684139 6.03877e-006 -1.62574e-006 -1.42949e-006 2.32306e-006 -2.53646e-006 -1.28847e-006 1.4792e-006 4.21933e-007 -6.74962e-007 3.80226e-006 -2.11452e-006 -1.96343e-006 -4.96146e-005 -10.0022 -3.78387e-006 35.2101 -40.0617 60.9554 9.38547 0.843723 127.277 -10.0001 -0.000895499 14.9991 -3.18055e-015 -3.18055e-015 -6.36111e-015 -6.36111e-015 6.36111e-015 -0 -1.59028e-015 9.54166e-015 1.27222e-014 -3.18055e-015 -3.18055e-015 -6.36111e-015 0.014987 -9.45298e-005 -2.7569e-006 1.59028e-015 0 -0 -3.18055e-015 -3.18055e-015 -6.36111e-015 0.0190119 -0.00119145 -5.99587e-005 -7.95139e-015 -3.18055e-015 6.36111e-015 -3.18055e-015 -3.18055e-015 -6.36111e-015 0.0122656 -0.00325053 -0.000680843 -2.06736e-014 -9.54166e-015 -0 -3.18055e-015 -3.18055e-015 -6.36111e-015 -6.36111e-015 6.36111e-015 -0 -1.59028e-015 9.54166e-015 1.27222e-014 -20.7087 -38.8331 -27.4169 179.999 85.1371 177.269 -2.87495 21.91 -1.26416 -1.54608e-007 1.66162e-006 -2.88974e-007 11.1688 1.75256 0.109391 3.33271e-006 2.1081 10.3886 11.8782 45.072 -7.27794 -2.96427e-007 5.21591e-008 1.09063e-007 
-0.0902839 -7.80954 6.29351 -180 -89.9981 -180 1.99979 -0.0143811 0.199511 3.99963 -0.0217713 0.399404 3.99963 -0.0217863 0.399405 -5.597e-005 27.9976 1.71607e-005 -7.64508e-007 15.997 -8.51613e-007 -4.81373e-005 -9.49237e-006 -2.51212e-006 -28.681 19.4635 13.8015 11.5217 17.0427 -22.8322 -23.0025 2.3979e-006 1.44882e-006 1.27222e-014 -9.54166e-015 -0 -1.62212e-007 -7.62084e-007 5.77098e-007 2.23414e-006 5.01751e-007 5.15905e-007 1.27222e-014 -9.54166e-015 -0 -0.0146047 -8.84256e-005 9.77324e-007 -1.59028e-014 3.18055e-015 -9.54166e-015 1.27222e-014 -9.54166e-015 -0 -0.0188003 -0.00117576 5.63765e-005 2.23271e-006 5.01575e-007 5.15969e-007 1.27222e-014 -9.54166e-015 -0 -0.0123152 -0.00325761 0.000677937 -3.18055e-015 -3.18055e-015 -0 1.27222e-014 -9.54166e-015 -0 -1.62212e-007 -7.62084e-007 5.77098e-007 2.23414e-006 5.01751e-007 5.15905e-007 -4.9443e-005 -10.0022 -4.06626e-006 35.2101 -40.0617 60.9554 9.65059 1.04553 127.272 -10.0001 -0.000877727 14.9991 -3.41819e-006 7.87352e-009 -5.23404e-007 -6.36211e-006 -6.33351e-007 4.2515e-007 -7.00333e-006 2.31056e-006 1.72335e-006 -3.41819e-006 7.87352e-009 -5.23404e-007 0.0150241 -8.88972e-005 3.08516e-006 -5.99912e-006 1.4447e-006 1.50327e-006 -3.41819e-006 7.87352e-009 -5.23404e-007 0.0190077 -0.00118832 -5.41091e-005 -7.00364e-006 2.31087e-006 1.72304e-006 -3.41819e-006 7.87352e-009 -5.23404e-007 0.0122775 -0.0032514 -0.000676272 -5.99943e-006 1.44425e-006 1.50338e-006 -3.41819e-006 7.87352e-009 -5.23404e-007 -6.36211e-006 -6.33351e-007 4.2515e-007 -7.00333e-006 2.31056e-006 1.72335e-006 -20.4394 -38.8791 -26.9638 179.999 85.1391 177.268 -2.87706 21.9107 -1.26501 -1.98785e-015 3.18055e-015 3.18055e-015 11.1791 1.71057 0.108807 1.56913e-007 2.1958 10.1708 11.8731 45.0409 -7.27203 -5.56915e-007 -4.64433e-006 7.08171e-007 
